<svg width="8.5in" height="11in" viewBox="0 0 816 1056" xmlns="http://www.w3.org/2000/svg">
<defs>
<marker style="overflow:visible" id="Arrow1Sstart" refX="0.0" refY="0.0" orient="auto">
<path transform="scale(0.2) translate(6,0)" 
style="fill-rule:evenodd;fill:context-stroke;stroke:context-stroke;stroke-width:1.0pt" 
d="M 0.0,0.0 L 5.0,-5.0 L -12.5,0.0 L 5.0,5.0 L 0.0,0.0 z "/>
</marker>
</defs>
<circle cx="600" cy="432" r="3" stroke="purple" fill="purple" stroke-width="1"/><circle cx="600" cy="432" r="3" stroke="brown" fill="brown" stroke-width="1"/><circle cx="600" cy="432" r="3" stroke="orange" fill="orange" stroke-width="1"/><g><line x1="504" y1="528" x2="408" y2="528" stroke="red" stroke-width="2" marker-start="url(#Arrow1Sstart)"/><line x1="408" y1="432" x2="408" y2="528" stroke="green" stroke-width="2" marker-start="url(#Arrow1Sstart)"/><text x="413" y="518.4" fill="black" font-size="12">{a}</text></g><g><line x1="555.8690213633415" y1="351.21875" x2="504" y2="432" stroke="red" stroke-width="2" marker-start="url(#Arrow1Sstart)"/><line x1="423.2187854584419" y1="380.13098" x2="504" y2="432" stroke="green" stroke-width="2" marker-start="url(#Arrow1Sstart)"/><text x="509" y="422.40002" fill="black" font-size="12">{b}</text></g><g><line x1="435.13771051325773" y1="212.05719" x2="475.0878068217834" y2="299.34973" stroke="red" stroke-width="2" marker-start="url(#Arrow1Sstart)"/><line x1="387.7952538465179" y1="339.29987" x2="475.0878068217834" y2="299.34973" stroke="green" stroke-width="2" marker-start="url(#Arrow1Sstart)"/><text x="480.0878068217834" y="289.74976" fill="black" font-size="12">{c}</text></g><line x1="275.34976409510057" y1="556.9122" x2="408" y2="528" stroke="purple" stroke-width="2" marker-start="url(#Arrow1Sstart)"/><line x1="371.34976409510057" y1="460.91217" x2="504" y2="432" stroke="black" stroke-width="2" marker-start="url(#Arrow1Sstart)"/><line x1="427.41435196681584" y1="448.69244" x2="504" y2="432" stroke="brown" stroke-width="2" marker-start="url(#Arrow1Sstart)"/><line x1="342.43757091688394" y1="328.26196" x2="475.0878068217834" y2="299.34973" stroke="orange" stroke-width="2" marker-start="url(#Arrow1Sstart)"/></svg>